<?xml version="1.0" encoding="UTF-8"?>
<svg id="a" data-name="Layer 1" xmlns="http://www.w3.org/2000/svg" viewBox="0 0 2048 2048">
  <defs>
    <style>
      .b {
        fill: #00b585;
      }
    </style>
  </defs>
  <path d="M745.73,1469.58c-89.43,0-161.3-20.49-215.6-61.49-54.3-40.97-81.45-98.22-81.45-171.68s22.88-130.96,68.67-172.48c45.76-41.52,115.51-71.32,209.21-89.44l282.68-55.9c0-60.69-13.85-106.2-41.52-136.55-27.7-30.34-68.67-45.52-122.97-45.52-48.99,0-87.59,11.45-115.79,34.34-28.22,22.91-47.66,55.65-58.29,98.22l-207.62-9.58c17.02-90.48,58.54-159.96,124.57-208.42,66-48.44,151.72-72.67,257.13-72.67,121.37,0,213.21,30.62,275.49,91.83,62.29,61.24,93.43,148.8,93.43,262.72v309.83c0,22.36,3.99,37.81,11.98,46.32,7.99,8.53,19.96,12.78,35.94,12.78h27.15v148.53c-6.39,2.12-16.77,3.72-31.14,4.79-14.37,1.05-29.02,1.6-43.92,1.6-35.13,0-66.55-5.59-94.23-16.77-27.7-11.18-48.99-30.87-63.88-59.09-14.92-28.2-22.36-66.8-22.36-115.79l17.57,12.78c-8.54,37.28-26.9,70.55-55.1,99.82-28.22,29.3-63.63,51.9-106.21,67.88-42.6,15.97-90.51,23.95-143.74,23.95ZM787.26,1321.06c45.77,0,85.17-9.03,118.18-27.15,32.99-18.09,58.54-43.12,76.66-75.06,18.09-31.94,27.15-69.72,27.15-113.39v-47.91l-220.4,44.72c-45.79,9.58-78.53,23.71-98.22,42.32-19.72,18.64-29.55,42.87-29.55,72.66,0,33.02,10.91,58.57,32.74,76.66,21.81,18.12,52.95,27.15,93.43,27.15Z"/>
  <circle class="b" cx="1454.84" cy="1318" r="144.49"/>
</svg>